<?xml version="1.0" encoding="UTF-8"?>
<svg width="247px" height="70px" viewBox="0 0 247 70" version="1.1" xmlns="http://www.w3.org/2000/svg" xmlns:xlink="http://www.w3.org/1999/xlink">
    <title>Group Copy 2</title>
    <g id="Page-1" stroke="none" stroke-width="1" fill="none" fill-rule="evenodd">
        <g id="Group-Copy-2" transform="translate(0.000000, 0.152000)">
            <path d="M7.232,22.848 L7.232,15.488 L10.112,12.576 L16.992,22.848 L23.296,22.848 L13.504,9.024 L22.432,-5.68434189e-14 L16.16,-5.68434189e-14 L7.232,9.472 L7.232,-5.68434189e-14 L2.208,-5.68434189e-14 L2.208,22.848 L7.232,22.848 Z M27.968,22.848 L29.76,17.76 L38.304,17.76 L40.032,22.848 L45.248,22.848 L36.704,-5.68434189e-14 L31.552,-5.68434189e-14 L22.912,22.848 L27.968,22.848 Z M36.992,14.016 L31.072,14.016 L34.048,5.632 L34.112,5.632 L36.992,14.016 Z M52.256,22.848 L52.256,14.656 L57.536,14.656 C58.9653333,14.656 60.1813333,14.448 61.184,14.032 C62.1866667,13.616 63.0026667,13.0666667 63.632,12.384 C64.2613333,11.7013333 64.72,10.9173333 65.008,10.032 C65.296,9.14666667 65.44,8.24533333 65.44,7.328 C65.44,6.38933333 65.296,5.48266667 65.008,4.608 C64.72,3.73333333 64.2613333,2.95466667 63.632,2.272 C63.0026667,1.58933333 62.1866667,1.04 61.184,0.624 C60.1813333,0.208 58.9653333,-5.68434189e-14 57.536,-5.68434189e-14 L47.232,-5.68434189e-14 L47.232,22.848 L52.256,22.848 Z M56.16,10.752 L52.256,10.752 L52.256,3.904 L56.16,3.904 C56.736,3.904 57.2906667,3.94666667 57.824,4.032 C58.3573333,4.11733333 58.8266667,4.28266667 59.232,4.528 C59.6373333,4.77333333 59.9626667,5.12 60.208,5.568 C60.4533333,6.016 60.576,6.60266667 60.576,7.328 C60.576,8.05333333 60.4533333,8.64 60.208,9.088 C59.9626667,9.536 59.6373333,9.88266667 59.232,10.128 C58.8266667,10.3733333 58.3573333,10.5386667 57.824,10.624 C57.2906667,10.7093333 56.736,10.752 56.16,10.752 Z M73.6,22.848 L73.6,14.656 L78.88,14.656 C80.3093333,14.656 81.5253333,14.448 82.528,14.032 C83.5306667,13.616 84.3466667,13.0666667 84.976,12.384 C85.6053333,11.7013333 86.064,10.9173333 86.352,10.032 C86.64,9.14666667 86.784,8.24533333 86.784,7.328 C86.784,6.38933333 86.64,5.48266667 86.352,4.608 C86.064,3.73333333 85.6053333,2.95466667 84.976,2.272 C84.3466667,1.58933333 83.5306667,1.04 82.528,0.624 C81.5253333,0.208 80.3093333,-5.68434189e-14 78.88,-5.68434189e-14 L68.576,-5.68434189e-14 L68.576,22.848 L73.6,22.848 Z M77.504,10.752 L73.6,10.752 L73.6,3.904 L77.504,3.904 C78.08,3.904 78.6346667,3.94666667 79.168,4.032 C79.7013333,4.11733333 80.1706667,4.28266667 80.576,4.528 C80.9813333,4.77333333 81.3066667,5.12 81.552,5.568 C81.7973333,6.016 81.92,6.60266667 81.92,7.328 C81.92,8.05333333 81.7973333,8.64 81.552,9.088 C81.3066667,9.536 80.9813333,9.88266667 80.576,10.128 C80.1706667,10.3733333 79.7013333,10.5386667 79.168,10.624 C78.6346667,10.7093333 78.08,10.752 77.504,10.752 Z M107.264,22.848 L107.264,18.624 L94.944,18.624 L94.944,13.024 L106.016,13.024 L106.016,9.12 L94.944,9.12 L94.944,4.224 L107.008,4.224 L107.008,-5.68434189e-14 L89.92,-5.68434189e-14 L89.92,22.848 L107.264,22.848 Z M126.816,22.848 L126.816,18.624 L115.68,18.624 L115.68,-5.68434189e-14 L110.656,-5.68434189e-14 L110.656,22.848 L126.816,22.848 Z M134.336,22.848 L134.336,7.552 L134.4,7.552 L143.904,22.848 L148.928,22.848 L148.928,-5.68434189e-14 L144.224,-5.68434189e-14 L144.224,15.328 L144.16,15.328 L134.624,-5.68434189e-14 L129.632,-5.68434189e-14 L129.632,22.848 L134.336,22.848 Z M177.152,22.848 L177.152,18.944 L166.56,18.944 C167.114667,18.176 167.754667,17.504 168.48,16.928 C169.205333,16.352 169.952,15.8133333 170.72,15.312 C171.488,14.8106667 172.250667,14.304 173.008,13.792 C173.765333,13.28 174.442667,12.7093333 175.04,12.08 C175.637333,11.4506667 176.117333,10.7306667 176.48,9.92 C176.842667,9.10933333 177.024,8.13866667 177.024,7.008 C177.024,5.92 176.816,4.93866667 176.4,4.064 C175.984,3.18933333 175.424,2.45333333 174.72,1.856 C174.016,1.25866667 173.2,0.8 172.272,0.48 C171.344,0.16 170.368,-5.68434189e-14 169.344,-5.68434189e-14 C168,-5.68434189e-14 166.810667,0.229333333 165.776,0.688 C164.741333,1.14666667 163.882667,1.78666667 163.2,2.608 C162.517333,3.42933333 162.005333,4.38933333 161.664,5.488 C161.322667,6.58666667 161.173333,7.776 161.216,9.056 L165.568,9.056 C165.568,8.45866667 165.626667,7.856 165.744,7.248 C165.861333,6.64 166.058667,6.08533333 166.336,5.584 C166.613333,5.08266667 166.981333,4.67733333 167.44,4.368 C167.898667,4.05866667 168.458667,3.904 169.12,3.904 C170.101333,3.904 170.906667,4.208 171.536,4.816 C172.165333,5.424 172.48,6.272 172.48,7.36 C172.48,8.04266667 172.325333,8.65066667 172.016,9.184 C171.706667,9.71733333 171.322667,10.1973333 170.864,10.624 C170.405333,11.0506667 169.898667,11.44 169.344,11.792 C168.789333,12.144 168.266667,12.4906667 167.776,12.832 C166.816,13.4933333 165.904,14.144 165.04,14.784 C164.176,15.424 163.424,16.1226667 162.784,16.88 C162.144,17.6373333 161.637333,18.496 161.264,19.456 C160.890667,20.416 160.704,21.5466667 160.704,22.848 L177.152,22.848 Z M186.688,23.264 C187.818667,23.264 188.88,23.072 189.872,22.688 C190.864,22.304 191.738667,21.664 192.496,20.768 C193.253333,19.872 193.850667,18.672 194.288,17.168 C194.725333,15.664 194.944,13.792 194.944,11.552 C194.944,9.376 194.725333,7.54666667 194.288,6.064 C193.850667,4.58133333 193.253333,3.392 192.496,2.496 C191.738667,1.6 190.864,0.96 189.872,0.576 C188.88,0.192 187.818667,-5.68434189e-14 186.688,-5.68434189e-14 C185.578667,-5.68434189e-14 184.528,0.192 183.536,0.576 C182.544,0.96 181.674667,1.6 180.928,2.496 C180.181333,3.392 179.589333,4.58133333 179.152,6.064 C178.714667,7.54666667 178.496,9.376 178.496,11.552 C178.496,13.792 178.714667,15.664 179.152,17.168 C179.589333,18.672 180.181333,19.872 180.928,20.768 C181.674667,21.664 182.544,22.304 183.536,22.688 C184.528,23.072 185.578667,23.264 186.688,23.264 Z M186.688,19.552 C185.770667,19.552 185.066667,19.2533333 184.576,18.656 C184.085333,18.0586667 183.728,17.3386667 183.504,16.496 C183.28,15.6533333 183.146667,14.7786667 183.104,13.872 C183.061333,12.9653333 183.04,12.192 183.04,11.552 C183.04,11.168 183.045333,10.704 183.056,10.16 C183.066667,9.616 183.104,9.056 183.168,8.48 C183.232,7.904 183.338667,7.33333333 183.488,6.768 C183.637333,6.20266667 183.845333,5.696 184.112,5.248 C184.378667,4.8 184.72,4.43733333 185.136,4.16 C185.552,3.88266667 186.069333,3.744 186.688,3.744 C187.306667,3.744 187.829333,3.88266667 188.256,4.16 C188.682667,4.43733333 189.034667,4.8 189.312,5.248 C189.589333,5.696 189.797333,6.20266667 189.936,6.768 C190.074667,7.33333333 190.181333,7.904 190.256,8.48 C190.330667,9.056 190.373333,9.616 190.384,10.16 C190.394667,10.704 190.4,11.168 190.4,11.552 C190.4,12.192 190.378667,12.9653333 190.336,13.872 C190.293333,14.7786667 190.16,15.6533333 189.936,16.496 C189.712,17.3386667 189.349333,18.0586667 188.848,18.656 C188.346667,19.2533333 187.626667,19.552 186.688,19.552 Z M212.736,22.848 L212.736,18.944 L202.144,18.944 C202.698667,18.176 203.338667,17.504 204.064,16.928 C204.789333,16.352 205.536,15.8133333 206.304,15.312 C207.072,14.8106667 207.834667,14.304 208.592,13.792 C209.349333,13.28 210.026667,12.7093333 210.624,12.08 C211.221333,11.4506667 211.701333,10.7306667 212.064,9.92 C212.426667,9.10933333 212.608,8.13866667 212.608,7.008 C212.608,5.92 212.4,4.93866667 211.984,4.064 C211.568,3.18933333 211.008,2.45333333 210.304,1.856 C209.6,1.25866667 208.784,0.8 207.856,0.48 C206.928,0.16 205.952,-5.68434189e-14 204.928,-5.68434189e-14 C203.584,-5.68434189e-14 202.394667,0.229333333 201.36,0.688 C200.325333,1.14666667 199.466667,1.78666667 198.784,2.608 C198.101333,3.42933333 197.589333,4.38933333 197.248,5.488 C196.906667,6.58666667 196.757333,7.776 196.8,9.056 L201.152,9.056 C201.152,8.45866667 201.210667,7.856 201.328,7.248 C201.445333,6.64 201.642667,6.08533333 201.92,5.584 C202.197333,5.08266667 202.565333,4.67733333 203.024,4.368 C203.482667,4.05866667 204.042667,3.904 204.704,3.904 C205.685333,3.904 206.490667,4.208 207.12,4.816 C207.749333,5.424 208.064,6.272 208.064,7.36 C208.064,8.04266667 207.909333,8.65066667 207.6,9.184 C207.290667,9.71733333 206.906667,10.1973333 206.448,10.624 C205.989333,11.0506667 205.482667,11.44 204.928,11.792 C204.373333,12.144 203.850667,12.4906667 203.36,12.832 C202.4,13.4933333 201.488,14.144 200.624,14.784 C199.76,15.424 199.008,16.1226667 198.368,16.88 C197.728,17.6373333 197.221333,18.496 196.848,19.456 C196.474667,20.416 196.288,21.5466667 196.288,22.848 L212.736,22.848 Z M225.952,22.848 L225.952,0.448 L222.336,0.448 C222.208,1.30133333 221.941333,2.016 221.536,2.592 C221.130667,3.168 220.634667,3.632 220.048,3.984 C219.461333,4.336 218.8,4.58133333 218.064,4.72 C217.328,4.85866667 216.565333,4.91733333 215.776,4.896 L215.776,8.32 L221.408,8.32 L221.408,22.848 L225.952,22.848 Z" id="KAPPELN2021" fill="#212529" fill-rule="nonzero"></path>
            <path d="M6.972,61.296 C8.46533333,61.296 9.65066667,61.0673333 10.528,60.61 C11.4053333,60.1526667 12.0773333,59.5833333 12.544,58.902 C13.0106667,58.2206667 13.3093333,57.488 13.44,56.704 C13.5706667,55.92 13.636,55.2013333 13.636,54.548 L13.636,40.856 L9.24,40.856 L9.24,54.352 C9.24,54.7066667 9.226,55.0753333 9.198,55.458 C9.17,55.8406667 9.086,56.1953333 8.946,56.522 C8.806,56.8486667 8.57733333,57.1146667 8.26,57.32 C7.94266667,57.5253333 7.49466667,57.628 6.916,57.628 C6.39333333,57.628 5.96866667,57.544 5.642,57.376 C5.31533333,57.208 5.05866667,56.9793333 4.872,56.69 C4.68533333,56.4006667 4.55466667,56.0506667 4.48,55.64 C4.40533333,55.2293333 4.368,54.7813333 4.368,54.296 L4.368,53.4 L0.392,53.4 L0.392,55.136 C0.392,56.2373333 0.578666667,57.1753333 0.952,57.95 C1.32533333,58.7246667 1.82,59.3593333 2.436,59.854 C3.052,60.3486667 3.752,60.7126667 4.536,60.946 C5.32,61.1793333 6.132,61.296 6.972,61.296 Z M26.46,61.296 C28.0093333,61.296 29.3906667,61.03 30.604,60.498 C31.8173333,59.966 32.844,59.2333333 33.684,58.3 C34.524,57.3666667 35.168,56.27 35.616,55.01 C36.064,53.75 36.288,52.392 36.288,50.936 C36.288,49.4426667 36.064,48.0566667 35.616,46.778 C35.168,45.4993333 34.524,44.384 33.684,43.432 C32.844,42.48 31.8173333,41.7333333 30.604,41.192 C29.3906667,40.6506667 28.0093333,40.38 26.46,40.38 C24.9293333,40.38 23.5526667,40.6506667 22.33,41.192 C21.1073333,41.7333333 20.076,42.48 19.236,43.432 C18.396,44.384 17.752,45.4993333 17.304,46.778 C16.856,48.0566667 16.632,49.4426667 16.632,50.936 C16.632,52.392 16.856,53.75 17.304,55.01 C17.752,56.27 18.396,57.3666667 19.236,58.3 C20.076,59.2333333 21.1073333,59.966 22.33,60.498 C23.5526667,61.03 24.9293333,61.296 26.46,61.296 Z M26.46,57.628 C25.4706667,57.628 24.6306667,57.4366667 23.94,57.054 C23.2493333,56.6713333 22.6893333,56.1626667 22.26,55.528 C21.8306667,54.8933333 21.518,54.1793333 21.322,53.386 C21.126,52.5926667 21.028,51.776 21.028,50.936 C21.028,50.0586667 21.126,49.2093333 21.322,48.388 C21.518,47.5666667 21.8306667,46.834 22.26,46.19 C22.6893333,45.546 23.2493333,45.0326667 23.94,44.65 C24.6306667,44.2673333 25.4706667,44.076 26.46,44.076 C27.4493333,44.076 28.2893333,44.2673333 28.98,44.65 C29.6706667,45.0326667 30.2306667,45.546 30.66,46.19 C31.0893333,46.834 31.402,47.5666667 31.598,48.388 C31.794,49.2093333 31.892,50.0586667 31.892,50.936 C31.892,51.776 31.794,52.5926667 31.598,53.386 C31.402,54.1793333 31.0893333,54.8933333 30.66,55.528 C30.2306667,56.1626667 29.6706667,56.6713333 28.98,57.054 C28.2893333,57.4366667 27.4493333,57.628 26.46,57.628 Z M41.608,60.848 L43.176,56.396 L50.652,56.396 L52.164,60.848 L56.728,60.848 L49.252,40.856 L44.744,40.856 L37.184,60.848 L41.608,60.848 Z M49.504,53.12 L44.324,53.12 L46.928,45.784 L46.984,45.784 L49.504,53.12 Z M67.424,61.296 C68.656,61.296 69.7853333,61.1093333 70.812,60.736 C71.8386667,60.3626667 72.7346667,59.8213333 73.5,59.112 C74.2653333,58.4026667 74.8813333,57.544 75.348,56.536 C75.8146667,55.528 76.104,54.3986667 76.216,53.148 L71.96,53.148 C71.792,54.492 71.33,55.5746667 70.574,56.396 C69.818,57.2173333 68.768,57.628 67.424,57.628 C66.4346667,57.628 65.5946667,57.4366667 64.904,57.054 C64.2133333,56.6713333 63.6533333,56.1626667 63.224,55.528 C62.7946667,54.8933333 62.482,54.1793333 62.286,53.386 C62.09,52.5926667 61.992,51.776 61.992,50.936 C61.992,50.0586667 62.09,49.2093333 62.286,48.388 C62.482,47.5666667 62.7946667,46.834 63.224,46.19 C63.6533333,45.546 64.2133333,45.0326667 64.904,44.65 C65.5946667,44.2673333 66.4346667,44.076 67.424,44.076 C67.9653333,44.076 68.4833333,44.1646667 68.978,44.342 C69.4726667,44.5193333 69.916,44.7666667 70.308,45.084 C70.7,45.4013333 71.0266667,45.77 71.288,46.19 C71.5493333,46.61 71.7173333,47.072 71.792,47.576 L76.048,47.576 C75.9173333,46.4186667 75.6,45.392 75.096,44.496 C74.592,43.6 73.9526667,42.8486667 73.178,42.242 C72.4033333,41.6353333 71.526,41.1733333 70.546,40.856 C69.566,40.5386667 68.5253333,40.38 67.424,40.38 C65.8933333,40.38 64.5166667,40.6506667 63.294,41.192 C62.0713333,41.7333333 61.04,42.48 60.2,43.432 C59.36,44.384 58.716,45.4993333 58.268,46.778 C57.82,48.0566667 57.596,49.4426667 57.596,50.936 C57.596,52.392 57.82,53.75 58.268,55.01 C58.716,56.27 59.36,57.3666667 60.2,58.3 C61.04,59.2333333 62.0713333,59.966 63.294,60.498 C64.5166667,61.03 65.8933333,61.296 67.424,61.296 Z M83.608,60.848 L83.608,52.224 L91.7,52.224 L91.7,60.848 L96.096,60.848 L96.096,40.856 L91.7,40.856 L91.7,48.528 L83.608,48.528 L83.608,40.856 L79.212,40.856 L79.212,60.848 L83.608,60.848 Z M104.356,60.848 L104.356,40.856 L99.96,40.856 L99.96,60.848 L104.356,60.848 Z M112.336,60.848 L112.336,46.82 L112.392,46.82 L117.292,60.848 L120.68,60.848 L125.58,46.68 L125.636,46.68 L125.636,60.848 L129.752,60.848 L129.752,40.856 L123.564,40.856 L119.14,54.604 L119.084,54.604 L114.408,40.856 L108.22,40.856 L108.22,60.848 L112.336,60.848 Z M148.652,61.296 C150.014667,61.296 151.214,61.1373333 152.25,60.82 C153.286,60.5026667 154.154,60.0593333 154.854,59.49 C155.554,58.9206667 156.081333,58.244 156.436,57.46 C156.790667,56.676 156.968,55.8266667 156.968,54.912 C156.968,53.792 156.73,52.8726667 156.254,52.154 C155.778,51.4353333 155.213333,50.8613333 154.56,50.432 C153.906667,50.0026667 153.248667,49.69 152.586,49.494 C151.923333,49.298 151.405333,49.1626667 151.032,49.088 C149.781333,48.7706667 148.768667,48.5093333 147.994,48.304 C147.219333,48.0986667 146.612667,47.8933333 146.174,47.688 C145.735333,47.4826667 145.441333,47.2586667 145.292,47.016 C145.142667,46.7733333 145.068,46.456 145.068,46.064 C145.068,45.6346667 145.161333,45.28 145.348,45 C145.534667,44.72 145.772667,44.4866667 146.062,44.3 C146.351333,44.1133333 146.673333,43.9826667 147.028,43.908 C147.382667,43.8333333 147.737333,43.796 148.092,43.796 C148.633333,43.796 149.132667,43.8426667 149.59,43.936 C150.047333,44.0293333 150.453333,44.188 150.808,44.412 C151.162667,44.636 151.447333,44.944 151.662,45.336 C151.876667,45.728 152.002667,46.2226667 152.04,46.82 L156.296,46.82 C156.296,45.6626667 156.076667,44.678 155.638,43.866 C155.199333,43.054 154.606667,42.3866667 153.86,41.864 C153.113333,41.3413333 152.259333,40.9633333 151.298,40.73 C150.336667,40.4966667 149.333333,40.38 148.288,40.38 C147.392,40.38 146.496,40.5013333 145.6,40.744 C144.704,40.9866667 143.901333,41.36 143.192,41.864 C142.482667,42.368 141.908667,42.998 141.47,43.754 C141.031333,44.51 140.812,45.4013333 140.812,46.428 C140.812,47.3426667 140.984667,48.122 141.33,48.766 C141.675333,49.41 142.128,49.9466667 142.688,50.376 C143.248,50.8053333 143.882667,51.1553333 144.592,51.426 C145.301333,51.6966667 146.029333,51.9253333 146.776,52.112 C147.504,52.3173333 148.222667,52.504 148.932,52.672 C149.641333,52.84 150.276,53.036 150.836,53.26 C151.396,53.484 151.848667,53.764 152.194,54.1 C152.539333,54.436 152.712,54.8746667 152.712,55.416 C152.712,55.92 152.581333,56.3353333 152.32,56.662 C152.058667,56.9886667 151.732,57.2453333 151.34,57.432 C150.948,57.6186667 150.528,57.7446667 150.08,57.81 C149.632,57.8753333 149.212,57.908 148.82,57.908 C148.241333,57.908 147.681333,57.838 147.14,57.698 C146.598667,57.558 146.127333,57.3433333 145.726,57.054 C145.324667,56.7646667 145.002667,56.3866667 144.76,55.92 C144.517333,55.4533333 144.396,54.884 144.396,54.212 L140.14,54.212 C140.121333,55.444 140.345333,56.508 140.812,57.404 C141.278667,58.3 141.908667,59.0373333 142.702,59.616 C143.495333,60.1946667 144.41,60.6193333 145.446,60.89 C146.482,61.1606667 147.550667,61.296 148.652,61.296 Z M168.392,60.848 L168.392,44.552 L174.384,44.552 L174.384,40.856 L158.004,40.856 L158.004,44.552 L163.996,44.552 L163.996,60.848 L168.392,60.848 Z M185.64,61.296 C187.189333,61.296 188.570667,61.03 189.784,60.498 C190.997333,59.966 192.024,59.2333333 192.864,58.3 C193.704,57.3666667 194.348,56.27 194.796,55.01 C195.244,53.75 195.468,52.392 195.468,50.936 C195.468,49.4426667 195.244,48.0566667 194.796,46.778 C194.348,45.4993333 193.704,44.384 192.864,43.432 C192.024,42.48 190.997333,41.7333333 189.784,41.192 C188.570667,40.6506667 187.189333,40.38 185.64,40.38 C184.109333,40.38 182.732667,40.6506667 181.51,41.192 C180.287333,41.7333333 179.256,42.48 178.416,43.432 C177.576,44.384 176.932,45.4993333 176.484,46.778 C176.036,48.0566667 175.812,49.4426667 175.812,50.936 C175.812,52.392 176.036,53.75 176.484,55.01 C176.932,56.27 177.576,57.3666667 178.416,58.3 C179.256,59.2333333 180.287333,59.966 181.51,60.498 C182.732667,61.03 184.109333,61.296 185.64,61.296 Z M185.64,57.628 C184.650667,57.628 183.810667,57.4366667 183.12,57.054 C182.429333,56.6713333 181.869333,56.1626667 181.44,55.528 C181.010667,54.8933333 180.698,54.1793333 180.502,53.386 C180.306,52.5926667 180.208,51.776 180.208,50.936 C180.208,50.0586667 180.306,49.2093333 180.502,48.388 C180.698,47.5666667 181.010667,46.834 181.44,46.19 C181.869333,45.546 182.429333,45.0326667 183.12,44.65 C183.810667,44.2673333 184.650667,44.076 185.64,44.076 C186.629333,44.076 187.469333,44.2673333 188.16,44.65 C188.850667,45.0326667 189.410667,45.546 189.84,46.19 C190.269333,46.834 190.582,47.5666667 190.778,48.388 C190.974,49.2093333 191.072,50.0586667 191.072,50.936 C191.072,51.776 190.974,52.5926667 190.778,53.386 C190.582,54.1793333 190.269333,54.8933333 189.84,55.528 C189.410667,56.1626667 188.850667,56.6713333 188.16,57.054 C187.469333,57.4366667 186.629333,57.628 185.64,57.628 Z M212.604,60.848 L212.604,57.152 L202.86,57.152 L202.86,40.856 L198.464,40.856 L198.464,60.848 L212.604,60.848 Z M229.208,60.848 L229.208,57.152 L219.464,57.152 L219.464,40.856 L215.068,40.856 L215.068,60.848 L229.208,60.848 Z" id="JOACHIMSTOLL" fill="#2664B3" fill-rule="nonzero"></path>
            <line x1="2.5" y1="31.348" x2="227.5" y2="31.348" id="Line" stroke="#8C8C8C" stroke-width="3" stroke-linecap="square"></line>
        </g>
    </g>
</svg>