<?xml version="1.0" encoding="UTF-8"?>
<svg width="329px" height="101px" viewBox="0 0 329 101" version="1.1" xmlns="http://www.w3.org/2000/svg" xmlns:xlink="http://www.w3.org/1999/xlink">
    <title>logo</title>
    <g id="Page-1" stroke="none" stroke-width="1" fill="none" fill-rule="evenodd">
        <g id="logo" transform="translate(-0.000000, 0.000000)" fill-rule="nonzero">
            <path d="M319.6,90.9 L324.4,90.9 L324.4,55.3 L314.8,56.2 L314.8,58.5 L319.6,58.5 L319.6,90.9 Z M284.1,90.9 L305.5,90.9 L305.5,86.8 L289.9,86.8 C292.2,77.2 305.7,74.6 305.7,64.4 C305.7,58.1 300.6,54.7 294.5,54.7 C291.2,54.7 287.9,55.5 285,56.9 L285,61 C287.8,59.4 290.6,58.1 293.9,58.1 C298,58.1 300.6,60.5 300.6,64.6 C300.6,72.7 288.3,76.7 284.1,86.7 L284.1,90.9 L284.1,90.9 Z M256.2,73.3 C256.2,64.9 258.3,58.3 263.8,58.3 C269.2,58.3 271.3,64.9 271.3,73.3 C271.3,81.7 269.3,88.3 263.8,88.3 C258.3,88.3 256.2,81.7 256.2,73.3 M251.1,73.3 C251.1,80.9 254.1,91.8 263.7,91.8 C273.4,91.8 276.3,80.9 276.3,73.3 C276.3,65.6 273.4,54.7 263.7,54.7 C254.1,54.7 251.1,65.6 251.1,73.3 M221.1,90.9 L242.5,90.9 L242.5,86.8 L226.9,86.8 C229.2,77.2 242.7,74.6 242.7,64.4 C242.7,58.1 237.6,54.7 231.5,54.7 C228.2,54.7 224.9,55.5 222,56.9 L222,61 C224.8,59.4 227.6,58.1 230.9,58.1 C235,58.1 237.6,60.5 237.6,64.6 C237.6,72.7 225.3,76.7 221.1,86.7 L221.1,90.9 L221.1,90.9 Z M179.8,65 L175,65 L175,90.9 L179.8,90.9 L179.8,74.2 C181.6,71.3 184.5,68.6 188.2,68.6 C190.4,68.6 191.9,70.1 191.9,72.6 L191.9,91 L196.7,91 L196.7,72 C196.7,68.1 194,64.5 189.3,64.5 C185.3,64.5 182,66.8 179.8,69.9 L179.5,69.9 L179.8,65 Z M160.7,90.9 L165.5,90.9 L165.5,53.3 L160.7,53.3 L160.7,90.9 Z M136.1,75.5 C136.3,72 137.8,68 141.9,68 C146.2,68 147.3,72 147.2,75.5 L136.1,75.5 Z M152.4,78.7 C152.6,72 150.6,64.4 142.3,64.4 C134.7,64.4 130.9,71.2 130.9,77.9 C130.9,82.1 132.7,91.4 143.5,91.4 C146.9,91.4 149.7,90.8 152.4,89.9 L152.4,86.1 C150,87.2 147.6,87.8 144.9,87.8 C139.1,87.8 136.2,83.9 136,78.5 L152.4,78.5 L152.4,78.7 Z M106.4,65 L101.6,65 L101.6,100.3 L106.4,100.3 L106.4,91.5 L106.1,88 L106.4,88 C108.5,90.5 111.1,91.5 114.4,91.5 C122.3,91.5 125.5,83.9 125.5,77.2 C125.5,70.8 122.8,64.4 115.2,64.4 C111.3,64.4 108.1,66.4 106.4,69.8 L106.1,69.8 L106.4,65 Z M106.4,72.9 C108.4,70.6 111.2,68.6 114.3,68.6 C119.4,68.6 120.4,73.9 120.4,77.8 C120.4,82.1 119,88 113.6,88 C110.5,88 108.7,86.7 106.4,84.7 L106.4,72.9 Z M75,65 L70.2,65 L70.2,100.3 L75,100.3 L75,91.5 L74.7,88 L75,88 C77.1,90.5 79.7,91.5 83,91.5 C90.9,91.5 94.1,83.9 94.1,77.2 C94.1,70.8 91.4,64.4 83.8,64.4 C79.9,64.4 76.7,66.4 75,69.8 L74.7,69.8 L75,65 Z M75,72.9 C77,70.6 79.8,68.6 82.9,68.6 C88,68.6 89,73.9 89,77.8 C89,82.1 87.6,88 82.2,88 C79.1,88 77.3,86.7 75,84.7 L75,72.9 Z M63.6,88.1 L62.7,88.1 C60,88.2 60.2,85.5 60.2,83.6 L60.2,72.1 C60.2,67 57.2,64.4 51.7,64.4 C48.5,64.4 45.4,65.1 42.5,66.4 L42.5,70.3 C44.8,69.1 47.9,68 50.6,68 C55,68 55.5,70.1 55.5,73.9 L55.5,75.7 L53.6,75.7 C44.4,75.7 40.3,79.8 40.3,84.5 C40.3,88.8 43.7,91.6 48,91.6 C51.1,91.6 54,89.8 56.1,87.7 C56.5,89.9 58.1,91.6 60.5,91.6 C61.6,91.6 63,91.4 64,90.9 L63.6,88.1 Z M55.4,85.1 C53.7,86.5 51.5,87.7 49.3,87.7 C47,87.7 45,86 45,83.7 C45,79.6 50.3,78.4 53.2,78.4 L55.5,78.4 L55.5,85.1 L55.4,85.1 Z M11,90.9 L15.8,90.9 L15.8,73 L31.4,90.9 L38,90.9 L21.2,72.1 L34.8,55.6 L30.2,55.6 L15.9,73 L15.8,73 L15.8,55.6 L11,55.6 L11,90.9 L11,90.9 Z" id="Shape" fill="#5E8D9C"></path>
            <path d="M328.9,39.9 C328.4,39.9 328,39.8 327.6,39.7 C327.2,39.6 326.8,39.5 326.4,39.3 C325.9,39.1 325.5,38.8 325.3,38.4 C325.1,38 325,37.5 325,36.9 L325,0.5 L324.6,0.1 L314.6,0.7 L314.6,2.4 C315.1,2.4 315.8,2.5 316.7,2.7 C317.6,2.9 318.2,3.1 318.5,3.3 C318.9,3.6 319.3,4.1 319.6,4.6 C319.9,5.2 320,5.8 320,6.4 L320,37.2 C320,37.8 319.9,38.4 319.6,38.8 C319.3,39.2 319,39.5 318.5,39.6 C318.2,39.7 317.8,39.8 317.3,39.8 C316.8,39.8 316.4,39.9 316,39.9 L316,41.7 L328.9,41.7 L328.9,39.9 Z M313.2,39.9 C312.7,39.9 312.3,39.8 311.9,39.7 C311.5,39.6 311.1,39.5 310.7,39.3 C310.2,39.1 309.8,38.8 309.6,38.4 C309.4,38 309.3,37.5 309.3,36.9 L309.3,0.5 L308.9,0.1 L298.9,0.7 L298.9,2.4 C299.4,2.4 300.1,2.5 301,2.7 C301.9,2.9 302.5,3.1 302.8,3.3 C303.2,3.6 303.6,4.1 303.9,4.6 C304.2,5.2 304.3,5.8 304.3,6.4 L304.3,37.2 C304.3,37.8 304.2,38.4 303.9,38.8 C303.6,39.2 303.3,39.5 302.8,39.6 C302.5,39.7 302.1,39.8 301.6,39.8 C301.1,39.8 300.7,39.9 300.3,39.9 L300.3,41.7 L313.2,41.7 L313.2,39.9 Z M289.4,37.2 C288.1,39.4 286.3,40.5 284.1,40.5 C282.7,40.5 281.6,40.2 280.7,39.5 C279.8,38.8 279,37.9 278.4,36.8 C277.8,35.7 277.3,34.3 277.1,32.9 C276.8,31.4 276.7,29.8 276.7,28.1 C276.7,26.8 276.8,25.4 277,24 C277.2,22.6 277.6,21.4 278.2,20.3 C278.8,19.1 279.6,18.2 280.6,17.5 C281.6,16.8 282.8,16.5 284.1,16.5 C285.4,16.5 286.6,16.8 287.5,17.5 C288.4,18.2 289.2,19.1 289.8,20.2 C290.3,21.2 290.7,22.5 291,24 C291.3,25.5 291.4,26.9 291.4,28.3 C291.3,32 290.7,35 289.4,37.2 M293.3,18.2 C290.9,15.7 287.8,14.4 284.1,14.4 C280.2,14.4 277,15.7 274.6,18.4 C272.2,21 271,24.4 271,28.6 C271,30.8 271.3,32.7 272,34.4 C272.7,36.1 273.6,37.6 274.8,38.8 C276,40 277.3,41 278.9,41.6 C280.4,42.2 282,42.6 283.7,42.6 C285.7,42.6 287.6,42.3 289.2,41.6 C290.8,40.9 292.3,39.8 293.5,38.4 C294.6,37.1 295.4,35.6 296,33.8 C296.6,32 296.9,30.2 296.9,28.3 C296.9,24 295.7,20.7 293.3,18.2 M268.4,38.6 C268,38.7 267.4,38.8 266.6,38.9 C265.7,39 265.1,39 264.6,39 C263.6,39 262.9,38.9 262.3,38.6 C261.7,38.3 261.3,37.9 261,37.4 C260.7,36.8 260.5,36.2 260.4,35.4 C260.3,34.7 260.3,33.7 260.3,32.6 L260.3,17.8 L267.9,17.8 L267.9,15.2 L260.3,15.2 L260.3,6.9 L255.4,6.9 L255.4,15.2 L250.5,15.2 L250.5,17.8 L255.3,17.8 L255.3,35.8 C255.3,37.8 255.8,39.4 256.7,40.5 C257.6,41.6 259.2,42.2 261.4,42.2 C262.9,42.2 264.2,42 265.2,41.7 C266.2,41.4 267.3,41 268.5,40.5 L268.5,38.6 L268.4,38.6 Z M242.9,22.1 C241.9,21.5 240.9,21 239.8,20.5 C238.6,20 237.4,19.5 236.1,19 C234.8,18.5 233.5,18 232.2,17.4 C230.7,16.7 229.6,15.8 228.8,14.7 C228,13.6 227.6,12.2 227.6,10.6 C227.6,9 228.2,7.7 229.4,6.6 C230.6,5.5 232.1,5 233.8,5 C235.4,5 236.8,5.3 237.9,5.9 C239,6.5 240,7.3 240.7,8.4 C241.5,9.5 242.1,10.7 242.6,12 C243.1,13.3 243.5,14.7 243.9,16.2 L246.1,16.2 L246.1,3.5 L243.9,3.5 L242.8,5.3 C241.7,4.6 240.4,4 239,3.4 C237.6,2.9 236,2.6 234.3,2.6 C232.8,2.6 231.3,2.9 229.9,3.4 C228.5,3.9 227.3,4.7 226.2,5.6 C225.1,6.6 224.3,7.7 223.7,9 C223.1,10.3 222.8,11.6 222.8,13.1 C222.8,15.6 223.4,17.7 224.6,19.2 C225.8,20.8 227.5,22 229.6,23 C230.7,23.5 232,24 233.5,24.6 C235,25.2 236.3,25.7 237.5,26.1 C239.2,26.8 240.5,27.8 241.3,29.1 C242.1,30.4 242.6,31.8 242.6,33.4 C242.6,34.4 242.5,35.4 242.2,36.2 C241.9,37 241.5,37.7 240.9,38.3 C240.3,38.9 239.6,39.4 238.7,39.7 C237.8,40 236.7,40.2 235.5,40.2 C233.8,40.2 232.4,39.9 231.2,39.3 C230,38.7 228.9,37.8 227.9,36.8 C226.9,35.7 226.1,34.5 225.5,33.2 C224.9,31.9 224.4,30.4 223.9,28.8 L221.7,28.8 L222.1,41.9 L224.3,41.9 L225.5,39.9 C226.7,40.7 228.2,41.3 229.9,41.8 C231.6,42.3 233.3,42.6 235,42.6 C238.7,42.6 241.8,41.5 244.3,39.3 C246.8,37.1 248,34.3 248,31 C248,29.6 247.8,28.3 247.4,27.3 C247,26.2 246.4,25.3 245.6,24.4 C244.8,23.4 243.9,22.7 242.9,22.1 M204.6,39.9 C204.1,39.9 203.6,39.8 203.2,39.7 C202.8,39.6 202.4,39.5 202,39.3 C201.5,39.1 201.1,38.8 200.9,38.4 C200.7,38 200.6,37.5 200.6,36.9 L200.6,23.4 C200.6,20.3 199.9,18.1 198.6,16.6 C197.3,15.1 195.5,14.4 193.3,14.4 C192.2,14.4 191.1,14.5 190.2,14.8 C189.3,15.1 188.5,15.5 187.8,15.9 C187,16.4 186.3,16.9 185.9,17.4 C185.4,17.9 184.8,18.4 184.2,19.1 C183.7,17.8 182.8,16.7 181.5,15.7 C180.3,14.8 178.8,14.3 177.1,14.3 C176,14.3 175,14.4 174,14.7 C173.1,15 172.3,15.3 171.6,15.8 C171,16.2 170.4,16.7 169.8,17.3 C169.2,17.9 168.6,18.4 168.2,18.9 L168,18.9 L168,15.1 L167.6,14.7 L158.7,15.3 L158.7,17.1 C159.2,17.1 159.8,17.2 160.3,17.4 C160.8,17.6 161.2,17.7 161.6,17.9 C162.1,18.2 162.4,18.6 162.7,19.1 C163,19.6 163.1,20.1 163.1,20.6 L163.1,37.1 C163.1,37.7 163,38.3 162.7,38.7 C162.5,39.1 162.1,39.4 161.6,39.5 C161.3,39.6 160.9,39.7 160.5,39.7 C160.1,39.7 159.6,39.8 159.2,39.8 L159.2,41.6 L172.1,41.6 L172.1,39.8 C171.6,39.8 171.2,39.7 170.8,39.6 C170.4,39.5 170,39.4 169.6,39.2 C169.1,39 168.7,38.7 168.5,38.3 C168.2,37.9 168.1,37.4 168.1,36.8 L168.1,21.6 C168.3,21.3 168.5,21 168.9,20.5 C169.3,20 169.7,19.6 170.2,19.2 C170.8,18.7 171.6,18.3 172.3,18.1 C173.1,17.8 173.9,17.7 174.8,17.7 C176.1,17.7 177.1,18.2 178,19.2 C178.9,20.2 179.3,21.7 179.3,23.5 L179.3,37.2 C179.3,37.8 179.2,38.4 178.9,38.8 C178.7,39.2 178.3,39.5 177.8,39.6 C177.5,39.7 177.1,39.8 176.7,39.8 C176.3,39.8 175.9,39.9 175.5,39.9 L175.5,41.7 L188.2,41.7 L188.2,39.9 C187.7,39.9 187.2,39.8 186.9,39.7 C186.6,39.6 186.2,39.5 185.8,39.3 C185.3,39.1 184.9,38.8 184.7,38.4 C184.5,38 184.4,37.5 184.4,36.9 L184.4,21.6 C184.6,21.3 184.8,20.9 185.2,20.5 C185.5,20 186,19.6 186.5,19.2 C187.1,18.7 187.9,18.3 188.6,18.1 C189.4,17.8 190.2,17.7 191.1,17.7 C192.4,17.7 193.4,18.2 194.3,19.2 C195.2,20.2 195.6,21.7 195.6,23.5 L195.6,37.2 C195.6,37.8 195.5,38.4 195.2,38.8 C195,39.2 194.6,39.5 194.1,39.6 C193.8,39.7 193.4,39.8 193,39.8 C192.6,39.8 192.2,39.9 191.7,39.9 L191.7,41.7 L204.6,41.7 L204.6,39.9 L204.6,39.9 Z M151.6,2 C150.9,1.3 150.1,1 149.1,1 C148.2,1 147.4,1.4 146.7,2.1 C146,2.8 145.7,3.7 145.7,4.7 C145.7,5.6 146,6.5 146.7,7.2 C147.4,7.9 148.2,8.3 149.1,8.3 C150.1,8.3 150.9,7.9 151.6,7.2 C152.3,6.4 152.6,5.5 152.6,4.5 C152.6,3.5 152.2,2.7 151.6,2 M155.9,39.9 C155.4,39.9 155,39.8 154.6,39.7 C154.2,39.6 153.8,39.5 153.4,39.3 C152.9,39.1 152.5,38.8 152.3,38.4 C152.1,38 151.9,37.5 151.9,36.8 L151.9,15.2 L151.5,14.8 L142.1,15.4 L142.1,17.2 C142.6,17.2 143.2,17.3 143.9,17.5 C144.5,17.7 145,17.8 145.4,18.1 C145.9,18.4 146.2,18.8 146.5,19.3 C146.8,19.8 146.9,20.3 146.9,20.9 L146.9,37.3 C146.9,37.9 146.8,38.5 146.5,38.9 C146.3,39.3 145.9,39.6 145.4,39.7 C145.1,39.8 144.7,39.9 144.3,39.9 C143.9,39.9 143.4,40 143,40 L143,41.8 L155.8,41.8 L155.8,39.9 L155.9,39.9 Z M139.9,39.9 C139.4,39.9 138.9,39.8 138.6,39.7 C138.3,39.6 137.9,39.5 137.5,39.3 C137,39.1 136.6,38.8 136.4,38.4 C136.2,38 136.1,37.5 136.1,36.9 L136.1,23.1 C136.1,20.3 135.5,18.1 134.2,16.6 C132.9,15.1 131.1,14.4 128.7,14.4 C127.5,14.4 126.5,14.5 125.6,14.8 C124.7,15.1 123.9,15.4 123.2,15.9 C122.4,16.4 121.8,16.9 121.3,17.3 C120.8,17.8 120.3,18.3 119.7,18.9 L119.6,18.9 L119.6,0.4 L119.2,0 L109.4,0.6 L109.4,2.3 C109.9,2.3 110.6,2.4 111.4,2.5 C112.2,2.6 112.8,2.8 113.1,3 C113.5,3.3 113.9,3.8 114.2,4.4 C114.5,5 114.6,5.6 114.6,6.2 L114.6,37.1 C114.6,37.7 114.5,38.3 114.2,38.7 C114,39.1 113.6,39.4 113.1,39.5 C112.8,39.6 112.4,39.7 112,39.7 C111.6,39.7 111.1,39.8 110.7,39.8 L110.7,41.6 L123.7,41.6 L123.7,39.8 C123.2,39.8 122.7,39.7 122.3,39.6 C121.9,39.5 121.5,39.4 121.1,39.2 C120.6,39 120.2,38.7 120,38.3 C119.8,37.9 119.6,37.4 119.6,36.8 L119.6,21.5 C119.8,21.2 120,20.8 120.4,20.4 C120.7,20 121.2,19.5 121.8,19.1 C122.4,18.7 123.1,18.3 123.9,18 C124.7,17.7 125.6,17.6 126.5,17.6 C127.8,17.6 128.9,18.1 129.8,19.1 C130.7,20.1 131.1,21.6 131.1,23.5 L131.1,37.1 C131.1,37.7 131,38.3 130.7,38.7 C130.5,39.1 130.1,39.4 129.6,39.5 C129.3,39.6 128.9,39.7 128.4,39.7 C127.9,39.7 127.4,39.8 127,39.8 L127,41.6 L140.1,41.6 L140.1,39.9 L139.9,39.9 Z M104.2,40.5 C106.1,39.3 107.7,37.6 108.9,35.5 L107.2,34.4 C106.2,36.1 105.1,37.4 103.9,38.2 C102.7,39 101.3,39.5 99.5,39.5 C97.1,39.5 95.2,38.4 93.7,36.3 C92.2,34.2 91.5,31.5 91.5,28.1 C91.5,26 91.7,24.2 92.1,22.6 C92.5,21.1 93,19.9 93.7,19 C94.4,18 95.2,17.3 96,17 C96.8,16.6 97.6,16.4 98.5,16.4 C99.2,16.4 99.9,16.5 100.6,16.7 C101.2,16.9 101.7,17.3 102,17.8 C102,18.2 101.8,18.8 101.6,19.7 C101.4,20.5 101.3,21.4 101.3,22.2 C101.3,22.9 101.6,23.5 102.2,24 C102.8,24.5 103.6,24.8 104.7,24.8 C105.7,24.8 106.4,24.5 106.8,23.8 C107.2,23.1 107.4,22.3 107.4,21.4 C107.4,19.2 106.6,17.5 104.9,16.3 C103.2,15.1 101.2,14.4 98.5,14.4 C96.6,14.4 94.9,14.8 93.3,15.6 C91.7,16.4 90.4,17.4 89.3,18.7 C88.2,20 87.3,21.5 86.8,23.1 C86.2,24.7 85.9,26.5 85.9,28.3 C85.9,32.6 87,36 89.2,38.6 C91.4,41.1 94.4,42.4 98.2,42.4 C100.3,42.4 102.3,41.8 104.2,40.5 M73.8,36.3 C73.1,37.1 72.3,37.9 71.4,38.5 C70.4,39.1 69.3,39.4 68,39.4 C66.8,39.4 65.8,39 65,38.3 C64.2,37.6 63.8,36.5 63.8,35 C63.8,33.8 64.1,32.9 64.6,32 C65.1,31.2 65.8,30.4 66.7,29.8 C67.7,29.2 68.8,28.6 69.9,28.2 C71,27.8 72.4,27.3 73.9,26.9 L73.8,36.3 Z M83.3,39.5 C82.7,39.5 82.1,39.5 81.5,39.5 C80.9,39.5 80.5,39.4 80.2,39.2 C79.7,38.9 79.3,38.6 79.1,38.2 C78.9,37.8 78.7,37.2 78.7,36.5 C78.7,34.1 78.7,32 78.8,30 C78.9,28 78.9,25.7 78.9,23.2 C78.9,21.4 78.7,19.9 78.2,18.8 C77.7,17.7 77,16.8 76.1,16.1 C75.2,15.4 74.2,15 73,14.8 C71.9,14.6 70.6,14.5 69.1,14.5 C68,14.5 66.9,14.7 65.7,15 C64.6,15.3 63.6,15.8 62.8,16.3 C61.9,16.9 61.1,17.6 60.5,18.3 C59.9,19.1 59.6,19.8 59.6,20.7 C59.6,21.5 59.8,22.2 60.2,22.8 C60.6,23.4 61.3,23.8 62.2,23.8 C63.2,23.8 64,23.5 64.6,23 C65.2,22.5 65.4,21.9 65.4,21.3 C65.4,20.7 65.3,20.1 65.1,19.4 C64.9,18.7 64.8,18.2 64.8,17.8 C65.1,17.5 65.6,17.2 66.3,16.9 C67,16.6 67.8,16.5 68.6,16.5 C69.8,16.5 70.7,16.7 71.4,17.2 C72.1,17.7 72.6,18.3 72.9,18.9 C73.2,19.5 73.4,20.1 73.5,20.8 C73.6,21.5 73.6,21.9 73.6,22.1 L73.6,24.8 C72.7,25.3 71.1,25.9 68.6,26.7 C66.1,27.5 64.5,28.1 63.7,28.4 C63.1,28.7 62.4,29 61.6,29.4 C60.9,29.8 60.3,30.3 59.8,30.8 C59.2,31.4 58.8,32.2 58.5,33 C58.2,33.8 58.1,34.7 58.1,35.7 C58.1,37.7 58.7,39.3 60,40.5 C61.3,41.7 62.9,42.3 64.9,42.3 C66.8,42.3 68.4,42 69.7,41.3 C71,40.6 72.3,39.6 73.5,38.3 L73.7,38.3 C73.9,39.6 74.5,40.5 75.3,41.2 C76.1,41.9 77.3,42.2 78.7,42.2 C79.5,42.2 80.2,42.1 80.9,41.9 C81.5,41.7 82.3,41.5 83.1,41.2 L83.1,39.5 L83.3,39.5 Z M46.8,37.2 C45.5,39.4 43.7,40.5 41.5,40.5 C40.1,40.5 39,40.2 38.1,39.5 C37.2,38.8 36.4,37.9 35.8,36.8 C35.2,35.7 34.7,34.3 34.5,32.9 C34.2,31.4 34.1,29.8 34.1,28.1 C34.1,26.8 34.2,25.4 34.4,24 C34.6,22.6 35,21.4 35.6,20.3 C36.2,19.1 37,18.2 38,17.5 C39,16.8 40.2,16.5 41.5,16.5 C42.8,16.5 44,16.8 44.9,17.5 C45.8,18.2 46.6,19.1 47.2,20.2 C47.7,21.2 48.1,22.5 48.4,24 C48.7,25.5 48.8,26.9 48.8,28.3 C48.8,32 48.1,35 46.8,37.2 M50.7,18.2 C48.3,15.7 45.2,14.4 41.5,14.4 C37.6,14.4 34.4,15.7 32,18.4 C29.6,21 28.4,24.4 28.4,28.6 C28.4,30.8 28.7,32.7 29.4,34.4 C30.1,36.1 31,37.6 32.2,38.8 C33.4,40 34.7,41 36.3,41.6 C37.8,42.2 39.4,42.6 41.1,42.6 C43.1,42.6 45,42.3 46.6,41.6 C48.2,40.9 49.7,39.8 50.9,38.4 C52,37.1 52.8,35.6 53.4,33.8 C54,32 54.3,30.2 54.3,28.3 C54.4,24 53.1,20.7 50.7,18.2 M26.7,3.5 L9.9,3.5 L9.9,5.4 C10.4,5.4 11.1,5.5 12,5.7 C12.8,5.9 13.5,6.1 14.1,6.4 C14.7,6.7 15.2,7.1 15.4,7.5 C15.6,7.9 15.7,8.4 15.7,9.1 L15.7,29.3 C15.7,31 15.6,32.5 15.4,33.9 C15.2,35.3 14.9,36.4 14.6,37.3 C14.2,38.3 13.6,39.1 12.7,39.7 C11.9,40.3 10.8,40.6 9.5,40.6 C8.2,40.6 7.1,40.4 6.3,39.9 C5.5,39.5 4.9,38.9 4.5,38.3 C4.6,37.9 4.9,37.3 5.2,36.8 C5.5,36.2 5.8,35.8 6.1,35.3 C6.4,34.9 6.6,34.3 6.9,33.8 C7.1,33.2 7.2,32.7 7.2,32.1 C7.2,31.1 6.9,30.3 6.2,29.7 C5.5,29.1 4.7,28.8 3.6,28.8 C2.4,28.8 1.5,29.3 0.9,30.2 C0.3,31.1 2.84217094e-14,32.2 2.84217094e-14,33.4 C2.84217094e-14,36.2 0.9,38.4 2.7,40 C4.5,41.6 6.9,42.5 9.8,42.5 C11.7,42.5 13.4,42.2 14.8,41.5 C16.3,40.8 17.5,39.9 18.6,38.6 C19.5,37.6 20.2,36.4 20.7,35 C21.2,33.7 21.4,32.4 21.4,31.2 L21.4,8.6 C21.4,8 21.5,7.5 21.7,7 C21.9,6.5 22.3,6.1 22.9,5.9 C23.4,5.7 24.1,5.6 24.8,5.5 C25.5,5.4 26.2,5.3 26.7,5.3 L26.7,3.5 Z" id="Shape" fill="#00447C"></path>
        </g>
    </g>
</svg>