<?xml version="1.0" encoding="UTF-8"?>
<svg width="230px" height="63px" viewBox="0 0 230 63" version="1.1" xmlns="http://www.w3.org/2000/svg" xmlns:xlink="http://www.w3.org/1999/xlink">
    <title>Group Copy 4</title>
    <g id="Page-1" stroke="none" stroke-width="1" fill="none" fill-rule="evenodd">
        <g id="Group-Copy-4" transform="translate(0.392000, 0.532000)">
            <path d="M6.84,61.468 L6.84,54.108 L9.72,51.196 L16.6,61.468 L22.904,61.468 L13.112,47.644 L22.04,38.62 L15.768,38.62 L6.84,48.092 L6.84,38.62 L1.816,38.62 L1.816,61.468 L6.84,61.468 Z M27.576,61.468 L29.368,56.38 L37.912,56.38 L39.64,61.468 L44.856,61.468 L36.312,38.62 L31.16,38.62 L22.52,61.468 L27.576,61.468 Z M36.6,52.636 L30.68,52.636 L33.656,44.252 L33.72,44.252 L36.6,52.636 Z M51.864,61.468 L51.864,53.276 L57.144,53.276 C58.5733333,53.276 59.7893333,53.068 60.792,52.652 C61.7946667,52.236 62.6106667,51.6866667 63.24,51.004 C63.8693333,50.3213333 64.328,49.5373333 64.616,48.652 C64.904,47.7666667 65.048,46.8653333 65.048,45.948 C65.048,45.0093333 64.904,44.1026667 64.616,43.228 C64.328,42.3533333 63.8693333,41.5746667 63.24,40.892 C62.6106667,40.2093333 61.7946667,39.66 60.792,39.244 C59.7893333,38.828 58.5733333,38.62 57.144,38.62 L46.84,38.62 L46.84,61.468 L51.864,61.468 Z M55.768,49.372 L51.864,49.372 L51.864,42.524 L55.768,42.524 C56.344,42.524 56.8986667,42.5666667 57.432,42.652 C57.9653333,42.7373333 58.4346667,42.9026667 58.84,43.148 C59.2453333,43.3933333 59.5706667,43.74 59.816,44.188 C60.0613333,44.636 60.184,45.2226667 60.184,45.948 C60.184,46.6733333 60.0613333,47.26 59.816,47.708 C59.5706667,48.156 59.2453333,48.5026667 58.84,48.748 C58.4346667,48.9933333 57.9653333,49.1586667 57.432,49.244 C56.8986667,49.3293333 56.344,49.372 55.768,49.372 Z M73.208,61.468 L73.208,53.276 L78.488,53.276 C79.9173333,53.276 81.1333333,53.068 82.136,52.652 C83.1386667,52.236 83.9546667,51.6866667 84.584,51.004 C85.2133333,50.3213333 85.672,49.5373333 85.96,48.652 C86.248,47.7666667 86.392,46.8653333 86.392,45.948 C86.392,45.0093333 86.248,44.1026667 85.96,43.228 C85.672,42.3533333 85.2133333,41.5746667 84.584,40.892 C83.9546667,40.2093333 83.1386667,39.66 82.136,39.244 C81.1333333,38.828 79.9173333,38.62 78.488,38.62 L68.184,38.62 L68.184,61.468 L73.208,61.468 Z M77.112,49.372 L73.208,49.372 L73.208,42.524 L77.112,42.524 C77.688,42.524 78.2426667,42.5666667 78.776,42.652 C79.3093333,42.7373333 79.7786667,42.9026667 80.184,43.148 C80.5893333,43.3933333 80.9146667,43.74 81.16,44.188 C81.4053333,44.636 81.528,45.2226667 81.528,45.948 C81.528,46.6733333 81.4053333,47.26 81.16,47.708 C80.9146667,48.156 80.5893333,48.5026667 80.184,48.748 C79.7786667,48.9933333 79.3093333,49.1586667 78.776,49.244 C78.2426667,49.3293333 77.688,49.372 77.112,49.372 Z M106.872,61.468 L106.872,57.244 L94.552,57.244 L94.552,51.644 L105.624,51.644 L105.624,47.74 L94.552,47.74 L94.552,42.844 L106.616,42.844 L106.616,38.62 L89.528,38.62 L89.528,61.468 L106.872,61.468 Z M126.424,61.468 L126.424,57.244 L115.288,57.244 L115.288,38.62 L110.264,38.62 L110.264,61.468 L126.424,61.468 Z M133.944,61.468 L133.944,46.172 L134.008,46.172 L143.512,61.468 L148.536,61.468 L148.536,38.62 L143.832,38.62 L143.832,53.948 L143.768,53.948 L134.232,38.62 L129.24,38.62 L129.24,61.468 L133.944,61.468 Z M176.76,61.468 L176.76,57.564 L166.168,57.564 C166.722667,56.796 167.362667,56.124 168.088,55.548 C168.813333,54.972 169.56,54.4333333 170.328,53.932 C171.096,53.4306667 171.858667,52.924 172.616,52.412 C173.373333,51.9 174.050667,51.3293333 174.648,50.7 C175.245333,50.0706667 175.725333,49.3506667 176.088,48.54 C176.450667,47.7293333 176.632,46.7586667 176.632,45.628 C176.632,44.54 176.424,43.5586667 176.008,42.684 C175.592,41.8093333 175.032,41.0733333 174.328,40.476 C173.624,39.8786667 172.808,39.42 171.88,39.1 C170.952,38.78 169.976,38.62 168.952,38.62 C167.608,38.62 166.418667,38.8493333 165.384,39.308 C164.349333,39.7666667 163.490667,40.4066667 162.808,41.228 C162.125333,42.0493333 161.613333,43.0093333 161.272,44.108 C160.930667,45.2066667 160.781333,46.396 160.824,47.676 L165.176,47.676 C165.176,47.0786667 165.234667,46.476 165.352,45.868 C165.469333,45.26 165.666667,44.7053333 165.944,44.204 C166.221333,43.7026667 166.589333,43.2973333 167.048,42.988 C167.506667,42.6786667 168.066667,42.524 168.728,42.524 C169.709333,42.524 170.514667,42.828 171.144,43.436 C171.773333,44.044 172.088,44.892 172.088,45.98 C172.088,46.6626667 171.933333,47.2706667 171.624,47.804 C171.314667,48.3373333 170.930667,48.8173333 170.472,49.244 C170.013333,49.6706667 169.506667,50.06 168.952,50.412 C168.397333,50.764 167.874667,51.1106667 167.384,51.452 C166.424,52.1133333 165.512,52.764 164.648,53.404 C163.784,54.044 163.032,54.7426667 162.392,55.5 C161.752,56.2573333 161.245333,57.116 160.872,58.076 C160.498667,59.036 160.312,60.1666667 160.312,61.468 L176.76,61.468 Z M186.296,61.884 C187.426667,61.884 188.488,61.692 189.48,61.308 C190.472,60.924 191.346667,60.284 192.104,59.388 C192.861333,58.492 193.458667,57.292 193.896,55.788 C194.333333,54.284 194.552,52.412 194.552,50.172 C194.552,47.996 194.333333,46.1666667 193.896,44.684 C193.458667,43.2013333 192.861333,42.012 192.104,41.116 C191.346667,40.22 190.472,39.58 189.48,39.196 C188.488,38.812 187.426667,38.62 186.296,38.62 C185.186667,38.62 184.136,38.812 183.144,39.196 C182.152,39.58 181.282667,40.22 180.536,41.116 C179.789333,42.012 179.197333,43.2013333 178.76,44.684 C178.322667,46.1666667 178.104,47.996 178.104,50.172 C178.104,52.412 178.322667,54.284 178.76,55.788 C179.197333,57.292 179.789333,58.492 180.536,59.388 C181.282667,60.284 182.152,60.924 183.144,61.308 C184.136,61.692 185.186667,61.884 186.296,61.884 Z M186.296,58.172 C185.378667,58.172 184.674667,57.8733333 184.184,57.276 C183.693333,56.6786667 183.336,55.9586667 183.112,55.116 C182.888,54.2733333 182.754667,53.3986667 182.712,52.492 C182.669333,51.5853333 182.648,50.812 182.648,50.172 C182.648,49.788 182.653333,49.324 182.664,48.78 C182.674667,48.236 182.712,47.676 182.776,47.1 C182.84,46.524 182.946667,45.9533333 183.096,45.388 C183.245333,44.8226667 183.453333,44.316 183.72,43.868 C183.986667,43.42 184.328,43.0573333 184.744,42.78 C185.16,42.5026667 185.677333,42.364 186.296,42.364 C186.914667,42.364 187.437333,42.5026667 187.864,42.78 C188.290667,43.0573333 188.642667,43.42 188.92,43.868 C189.197333,44.316 189.405333,44.8226667 189.544,45.388 C189.682667,45.9533333 189.789333,46.524 189.864,47.1 C189.938667,47.676 189.981333,48.236 189.992,48.78 C190.002667,49.324 190.008,49.788 190.008,50.172 C190.008,50.812 189.986667,51.5853333 189.944,52.492 C189.901333,53.3986667 189.768,54.2733333 189.544,55.116 C189.32,55.9586667 188.957333,56.6786667 188.456,57.276 C187.954667,57.8733333 187.234667,58.172 186.296,58.172 Z M212.344,61.468 L212.344,57.564 L201.752,57.564 C202.306667,56.796 202.946667,56.124 203.672,55.548 C204.397333,54.972 205.144,54.4333333 205.912,53.932 C206.68,53.4306667 207.442667,52.924 208.2,52.412 C208.957333,51.9 209.634667,51.3293333 210.232,50.7 C210.829333,50.0706667 211.309333,49.3506667 211.672,48.54 C212.034667,47.7293333 212.216,46.7586667 212.216,45.628 C212.216,44.54 212.008,43.5586667 211.592,42.684 C211.176,41.8093333 210.616,41.0733333 209.912,40.476 C209.208,39.8786667 208.392,39.42 207.464,39.1 C206.536,38.78 205.56,38.62 204.536,38.62 C203.192,38.62 202.002667,38.8493333 200.968,39.308 C199.933333,39.7666667 199.074667,40.4066667 198.392,41.228 C197.709333,42.0493333 197.197333,43.0093333 196.856,44.108 C196.514667,45.2066667 196.365333,46.396 196.408,47.676 L200.76,47.676 C200.76,47.0786667 200.818667,46.476 200.936,45.868 C201.053333,45.26 201.250667,44.7053333 201.528,44.204 C201.805333,43.7026667 202.173333,43.2973333 202.632,42.988 C203.090667,42.6786667 203.650667,42.524 204.312,42.524 C205.293333,42.524 206.098667,42.828 206.728,43.436 C207.357333,44.044 207.672,44.892 207.672,45.98 C207.672,46.6626667 207.517333,47.2706667 207.208,47.804 C206.898667,48.3373333 206.514667,48.8173333 206.056,49.244 C205.597333,49.6706667 205.090667,50.06 204.536,50.412 C203.981333,50.764 203.458667,51.1106667 202.968,51.452 C202.008,52.1133333 201.096,52.764 200.232,53.404 C199.368,54.044 198.616,54.7426667 197.976,55.5 C197.336,56.2573333 196.829333,57.116 196.456,58.076 C196.082667,59.036 195.896,60.1666667 195.896,61.468 L212.344,61.468 Z M225.56,61.468 L225.56,39.068 L221.944,39.068 C221.816,39.9213333 221.549333,40.636 221.144,41.212 C220.738667,41.788 220.242667,42.252 219.656,42.604 C219.069333,42.956 218.408,43.2013333 217.672,43.34 C216.936,43.4786667 216.173333,43.5373333 215.384,43.516 L215.384,46.94 L221.016,46.94 L221.016,61.468 L225.56,61.468 Z" id="KAPPELN2021" fill="#4E7D89" fill-rule="nonzero"></path>
            <path d="M6.58,20.916 C8.07333333,20.916 9.25866667,20.6873333 10.136,20.23 C11.0133333,19.7726667 11.6853333,19.2033333 12.152,18.522 C12.6186667,17.8406667 12.9173333,17.108 13.048,16.324 C13.1786667,15.54 13.244,14.8213333 13.244,14.168 L13.244,0.476 L8.848,0.476 L8.848,13.972 C8.848,14.3266667 8.834,14.6953333 8.806,15.078 C8.778,15.4606667 8.694,15.8153333 8.554,16.142 C8.414,16.4686667 8.18533333,16.7346667 7.868,16.94 C7.55066667,17.1453333 7.10266667,17.248 6.524,17.248 C6.00133333,17.248 5.57666667,17.164 5.25,16.996 C4.92333333,16.828 4.66666667,16.5993333 4.48,16.31 C4.29333333,16.0206667 4.16266667,15.6706667 4.088,15.26 C4.01333333,14.8493333 3.976,14.4013333 3.976,13.916 L3.976,13.02 L0,13.02 L0,14.756 C0,15.8573333 0.186666667,16.7953333 0.56,17.57 C0.933333333,18.3446667 1.428,18.9793333 2.044,19.474 C2.66,19.9686667 3.36,20.3326667 4.144,20.566 C4.928,20.7993333 5.74,20.916 6.58,20.916 Z M26.068,20.916 C27.6173333,20.916 28.9986667,20.65 30.212,20.118 C31.4253333,19.586 32.452,18.8533333 33.292,17.92 C34.132,16.9866667 34.776,15.89 35.224,14.63 C35.672,13.37 35.896,12.012 35.896,10.556 C35.896,9.06266667 35.672,7.67666667 35.224,6.398 C34.776,5.11933333 34.132,4.004 33.292,3.052 C32.452,2.1 31.4253333,1.35333333 30.212,0.812 C28.9986667,0.270666667 27.6173333,0 26.068,0 C24.5373333,0 23.1606667,0.270666667 21.938,0.812 C20.7153333,1.35333333 19.684,2.1 18.844,3.052 C18.004,4.004 17.36,5.11933333 16.912,6.398 C16.464,7.67666667 16.24,9.06266667 16.24,10.556 C16.24,12.012 16.464,13.37 16.912,14.63 C17.36,15.89 18.004,16.9866667 18.844,17.92 C19.684,18.8533333 20.7153333,19.586 21.938,20.118 C23.1606667,20.65 24.5373333,20.916 26.068,20.916 Z M26.068,17.248 C25.0786667,17.248 24.2386667,17.0566667 23.548,16.674 C22.8573333,16.2913333 22.2973333,15.7826667 21.868,15.148 C21.4386667,14.5133333 21.126,13.7993333 20.93,13.006 C20.734,12.2126667 20.636,11.396 20.636,10.556 C20.636,9.67866667 20.734,8.82933333 20.93,8.008 C21.126,7.18666667 21.4386667,6.454 21.868,5.81 C22.2973333,5.166 22.8573333,4.65266667 23.548,4.27 C24.2386667,3.88733333 25.0786667,3.696 26.068,3.696 C27.0573333,3.696 27.8973333,3.88733333 28.588,4.27 C29.2786667,4.65266667 29.8386667,5.166 30.268,5.81 C30.6973333,6.454 31.01,7.18666667 31.206,8.008 C31.402,8.82933333 31.5,9.67866667 31.5,10.556 C31.5,11.396 31.402,12.2126667 31.206,13.006 C31.01,13.7993333 30.6973333,14.5133333 30.268,15.148 C29.8386667,15.7826667 29.2786667,16.2913333 28.588,16.674 C27.8973333,17.0566667 27.0573333,17.248 26.068,17.248 Z M41.216,20.468 L42.784,16.016 L50.26,16.016 L51.772,20.468 L56.336,20.468 L48.86,0.476 L44.352,0.476 L36.792,20.468 L41.216,20.468 Z M49.112,12.74 L43.932,12.74 L46.536,5.404 L46.592,5.404 L49.112,12.74 Z M67.032,20.916 C68.264,20.916 69.3933333,20.7293333 70.42,20.356 C71.4466667,19.9826667 72.3426667,19.4413333 73.108,18.732 C73.8733333,18.0226667 74.4893333,17.164 74.956,16.156 C75.4226667,15.148 75.712,14.0186667 75.824,12.768 L71.568,12.768 C71.4,14.112 70.938,15.1946667 70.182,16.016 C69.426,16.8373333 68.376,17.248 67.032,17.248 C66.0426667,17.248 65.2026667,17.0566667 64.512,16.674 C63.8213333,16.2913333 63.2613333,15.7826667 62.832,15.148 C62.4026667,14.5133333 62.09,13.7993333 61.894,13.006 C61.698,12.2126667 61.6,11.396 61.6,10.556 C61.6,9.67866667 61.698,8.82933333 61.894,8.008 C62.09,7.18666667 62.4026667,6.454 62.832,5.81 C63.2613333,5.166 63.8213333,4.65266667 64.512,4.27 C65.2026667,3.88733333 66.0426667,3.696 67.032,3.696 C67.5733333,3.696 68.0913333,3.78466667 68.586,3.962 C69.0806667,4.13933333 69.524,4.38666667 69.916,4.704 C70.308,5.02133333 70.6346667,5.39 70.896,5.81 C71.1573333,6.23 71.3253333,6.692 71.4,7.196 L75.656,7.196 C75.5253333,6.03866667 75.208,5.012 74.704,4.116 C74.2,3.22 73.5606667,2.46866667 72.786,1.862 C72.0113333,1.25533333 71.134,0.793333333 70.154,0.476 C69.174,0.158666667 68.1333333,0 67.032,0 C65.5013333,0 64.1246667,0.270666667 62.902,0.812 C61.6793333,1.35333333 60.648,2.1 59.808,3.052 C58.968,4.004 58.324,5.11933333 57.876,6.398 C57.428,7.67666667 57.204,9.06266667 57.204,10.556 C57.204,12.012 57.428,13.37 57.876,14.63 C58.324,15.89 58.968,16.9866667 59.808,17.92 C60.648,18.8533333 61.6793333,19.586 62.902,20.118 C64.1246667,20.65 65.5013333,20.916 67.032,20.916 Z M83.216,20.468 L83.216,11.844 L91.308,11.844 L91.308,20.468 L95.704,20.468 L95.704,0.476 L91.308,0.476 L91.308,8.148 L83.216,8.148 L83.216,0.476 L78.82,0.476 L78.82,20.468 L83.216,20.468 Z M103.964,20.468 L103.964,0.476 L99.568,0.476 L99.568,20.468 L103.964,20.468 Z M111.944,20.468 L111.944,6.44 L112,6.44 L116.9,20.468 L120.288,20.468 L125.188,6.3 L125.244,6.3 L125.244,20.468 L129.36,20.468 L129.36,0.476 L123.172,0.476 L118.748,14.224 L118.692,14.224 L114.016,0.476 L107.828,0.476 L107.828,20.468 L111.944,20.468 Z M148.26,20.916 C149.622667,20.916 150.822,20.7573333 151.858,20.44 C152.894,20.1226667 153.762,19.6793333 154.462,19.11 C155.162,18.5406667 155.689333,17.864 156.044,17.08 C156.398667,16.296 156.576,15.4466667 156.576,14.532 C156.576,13.412 156.338,12.4926667 155.862,11.774 C155.386,11.0553333 154.821333,10.4813333 154.168,10.052 C153.514667,9.62266667 152.856667,9.31 152.194,9.114 C151.531333,8.918 151.013333,8.78266667 150.64,8.708 C149.389333,8.39066667 148.376667,8.12933333 147.602,7.924 C146.827333,7.71866667 146.220667,7.51333333 145.782,7.308 C145.343333,7.10266667 145.049333,6.87866667 144.9,6.636 C144.750667,6.39333333 144.676,6.076 144.676,5.684 C144.676,5.25466667 144.769333,4.9 144.956,4.62 C145.142667,4.34 145.380667,4.10666667 145.67,3.92 C145.959333,3.73333333 146.281333,3.60266667 146.636,3.528 C146.990667,3.45333333 147.345333,3.416 147.7,3.416 C148.241333,3.416 148.740667,3.46266667 149.198,3.556 C149.655333,3.64933333 150.061333,3.808 150.416,4.032 C150.770667,4.256 151.055333,4.564 151.27,4.956 C151.484667,5.348 151.610667,5.84266667 151.648,6.44 L155.904,6.44 C155.904,5.28266667 155.684667,4.298 155.246,3.486 C154.807333,2.674 154.214667,2.00666667 153.468,1.484 C152.721333,0.961333333 151.867333,0.583333333 150.906,0.35 C149.944667,0.116666667 148.941333,0 147.896,0 C147,0 146.104,0.121333333 145.208,0.364 C144.312,0.606666667 143.509333,0.98 142.8,1.484 C142.090667,1.988 141.516667,2.618 141.078,3.374 C140.639333,4.13 140.42,5.02133333 140.42,6.048 C140.42,6.96266667 140.592667,7.742 140.938,8.386 C141.283333,9.03 141.736,9.56666667 142.296,9.996 C142.856,10.4253333 143.490667,10.7753333 144.2,11.046 C144.909333,11.3166667 145.637333,11.5453333 146.384,11.732 C147.112,11.9373333 147.830667,12.124 148.54,12.292 C149.249333,12.46 149.884,12.656 150.444,12.88 C151.004,13.104 151.456667,13.384 151.802,13.72 C152.147333,14.056 152.32,14.4946667 152.32,15.036 C152.32,15.54 152.189333,15.9553333 151.928,16.282 C151.666667,16.6086667 151.34,16.8653333 150.948,17.052 C150.556,17.2386667 150.136,17.3646667 149.688,17.43 C149.24,17.4953333 148.82,17.528 148.428,17.528 C147.849333,17.528 147.289333,17.458 146.748,17.318 C146.206667,17.178 145.735333,16.9633333 145.334,16.674 C144.932667,16.3846667 144.610667,16.0066667 144.368,15.54 C144.125333,15.0733333 144.004,14.504 144.004,13.832 L139.748,13.832 C139.729333,15.064 139.953333,16.128 140.42,17.024 C140.886667,17.92 141.516667,18.6573333 142.31,19.236 C143.103333,19.8146667 144.018,20.2393333 145.054,20.51 C146.09,20.7806667 147.158667,20.916 148.26,20.916 Z M168,20.468 L168,4.172 L173.992,4.172 L173.992,0.476 L157.612,0.476 L157.612,4.172 L163.604,4.172 L163.604,20.468 L168,20.468 Z M185.248,20.916 C186.797333,20.916 188.178667,20.65 189.392,20.118 C190.605333,19.586 191.632,18.8533333 192.472,17.92 C193.312,16.9866667 193.956,15.89 194.404,14.63 C194.852,13.37 195.076,12.012 195.076,10.556 C195.076,9.06266667 194.852,7.67666667 194.404,6.398 C193.956,5.11933333 193.312,4.004 192.472,3.052 C191.632,2.1 190.605333,1.35333333 189.392,0.812 C188.178667,0.270666667 186.797333,0 185.248,0 C183.717333,0 182.340667,0.270666667 181.118,0.812 C179.895333,1.35333333 178.864,2.1 178.024,3.052 C177.184,4.004 176.54,5.11933333 176.092,6.398 C175.644,7.67666667 175.42,9.06266667 175.42,10.556 C175.42,12.012 175.644,13.37 176.092,14.63 C176.54,15.89 177.184,16.9866667 178.024,17.92 C178.864,18.8533333 179.895333,19.586 181.118,20.118 C182.340667,20.65 183.717333,20.916 185.248,20.916 Z M185.248,17.248 C184.258667,17.248 183.418667,17.0566667 182.728,16.674 C182.037333,16.2913333 181.477333,15.7826667 181.048,15.148 C180.618667,14.5133333 180.306,13.7993333 180.11,13.006 C179.914,12.2126667 179.816,11.396 179.816,10.556 C179.816,9.67866667 179.914,8.82933333 180.11,8.008 C180.306,7.18666667 180.618667,6.454 181.048,5.81 C181.477333,5.166 182.037333,4.65266667 182.728,4.27 C183.418667,3.88733333 184.258667,3.696 185.248,3.696 C186.237333,3.696 187.077333,3.88733333 187.768,4.27 C188.458667,4.65266667 189.018667,5.166 189.448,5.81 C189.877333,6.454 190.19,7.18666667 190.386,8.008 C190.582,8.82933333 190.68,9.67866667 190.68,10.556 C190.68,11.396 190.582,12.2126667 190.386,13.006 C190.19,13.7993333 189.877333,14.5133333 189.448,15.148 C189.018667,15.7826667 188.458667,16.2913333 187.768,16.674 C187.077333,17.0566667 186.237333,17.248 185.248,17.248 Z M212.212,20.468 L212.212,16.772 L202.468,16.772 L202.468,0.476 L198.072,0.476 L198.072,20.468 L212.212,20.468 Z M228.816,20.468 L228.816,16.772 L219.072,16.772 L219.072,0.476 L214.676,0.476 L214.676,20.468 L228.816,20.468 Z" id="JOACHIMSTOLL" fill="#004279" fill-rule="nonzero"></path>
            <line x1="2.108" y1="29.968" x2="227.108" y2="29.968" id="Line" stroke-opacity="0.34861574" stroke="#8C8C8C" stroke-width="3" stroke-linecap="square"></line>
        </g>
    </g>
</svg>